<?xml version="1.0" encoding="UTF-8" standalone="no"?>
<!DOCTYPE svg PUBLIC "-//W3C//DTD SVG 1.1//EN"
 "http://www.w3.org/Graphics/SVG/1.1/DTD/svg11.dtd">
<!-- Generated by graphviz version 2.26.3 (20100126.1600)
 -->
<!-- Title: G Pages: 1 -->
<svg width="619pt" height="374pt"
 viewBox="0.00 0.00 619.00 374.00" xmlns="http://www.w3.org/2000/svg" xmlns:xlink="http://www.w3.org/1999/xlink">
<g id="graph1" class="graph" transform="scale(1 1) rotate(0) translate(4 370)">
<title>G</title>
<polygon fill="white" stroke="white" points="-4,5 -4,-370 616,-370 616,5 -4,5"/>
<!-- 0 -->
<g id="node1" class="node"><title>0</title>
<ellipse fill="none" stroke="black" cx="61" cy="-347" rx="60.8112" ry="18.3848"/>
<text text-anchor="middle" x="61" y="-343.4" font-family="Times Roman,serif" font-size="14.00">function F</text>
</g>
<!-- 1 -->
<g id="node2" class="node"><title>1</title>
<ellipse fill="none" stroke="black" cx="151" cy="-183" rx="27" ry="18.3848"/>
<text text-anchor="middle" x="151" y="-179.4" font-family="Times Roman,serif" font-size="14.00">{}</text>
</g>
<!-- 0&#45;&gt;1 -->
<g id="edge2" class="edge"><title>0&#45;&gt;1</title>
<path fill="none" stroke="black" d="M49.2056,-328.567C38.5974,-309.442 26.4552,-279.151 39,-256 55.4468,-225.648 90.5886,-205.923 117.15,-194.723"/>
<polygon fill="black" stroke="black" points="118.517,-197.946 126.498,-190.978 115.913,-191.448 118.517,-197.946"/>
<text text-anchor="middle" x="73" y="-261.4" font-family="Times Roman,serif" font-size="14.00">prototype</text>
</g>
<!-- 3 -->
<g id="node4" class="node"><title>3</title>
<ellipse fill="none" stroke="black" cx="151" cy="-19" rx="27" ry="18.3848"/>
<text text-anchor="middle" x="151" y="-15.4" font-family="Times Roman,serif" font-size="14.00">2</text>
</g>
<!-- 1&#45;&gt;3 -->
<g id="edge4" class="edge"><title>1&#45;&gt;3</title>
<path fill="none" stroke="black" d="M151,-164.187C151,-135.641 151,-81.1738 151,-47.6739"/>
<polygon fill="black" stroke="black" points="154.5,-47.5934 151,-37.5935 147.5,-47.5935 154.5,-47.5934"/>
<text text-anchor="middle" x="155.5" y="-97.4" font-family="Times Roman,serif" font-size="14.00">b</text>
</g>
<!-- 2 -->
<g id="node3" class="node"><title>2</title>
<ellipse fill="none" stroke="black" cx="422" cy="-183" rx="27" ry="18.3848"/>
<text text-anchor="middle" x="422" y="-179.4" font-family="Times Roman,serif" font-size="14.00">1</text>
</g>
<!-- 4 -->
<g id="node5" class="node"><title>4</title>
<ellipse fill="none" stroke="black" cx="584" cy="-183" rx="27" ry="18.3848"/>
<text text-anchor="middle" x="584" y="-179.4" font-family="Times Roman,serif" font-size="14.00">3</text>
</g>
<!-- 5 -->
<g id="node6" class="node"><title>5</title>
<ellipse fill="none" stroke="black" cx="422" cy="-347" rx="67.1751" ry="18.3848"/>
<text text-anchor="middle" x="422" y="-343.4" font-family="Times Roman,serif" font-size="14.00">f = new F()</text>
</g>
<!-- 5&#45;&gt;1 -->
<g id="edge6" class="edge"><title>5&#45;&gt;1</title>
<path fill="none" stroke="black" d="M394.019,-330.067C342.479,-298.876 233.015,-232.633 180.419,-200.803"/>
<polygon fill="black" stroke="black" points="181.952,-197.64 171.585,-195.457 178.328,-203.629 181.952,-197.64"/>
<text text-anchor="middle" x="327.5" y="-261.4" font-family="Times Roman,serif" font-size="14.00">__proto__</text>
</g>
<!-- 5&#45;&gt;2 -->
<g id="edge8" class="edge"><title>5&#45;&gt;2</title>
<path fill="none" stroke="black" d="M422,-328.187C422,-299.641 422,-245.174 422,-211.674"/>
<polygon fill="black" stroke="black" points="425.5,-211.593 422,-201.593 418.5,-211.594 425.5,-211.593"/>
<text text-anchor="middle" x="426.5" y="-261.4" font-family="Times Roman,serif" font-size="14.00">a</text>
</g>
<!-- 5&#45;&gt;4 -->
<g id="edge10" class="edge"><title>5&#45;&gt;4</title>
<path fill="none" stroke="black" d="M439.645,-329.137C469.254,-299.163 528.889,-238.792 561.478,-205.8"/>
<polygon fill="black" stroke="black" points="564.228,-207.997 568.765,-198.423 559.248,-203.078 564.228,-207.997"/>
<text text-anchor="middle" x="510.5" y="-261.4" font-family="Times Roman,serif" font-size="14.00">c</text>
</g>
</g>
</svg>
