<?xml version="1.0" encoding="UTF-8" standalone="no"?>
<!DOCTYPE svg PUBLIC "-//W3C//DTD SVG 1.1//EN"
 "http://www.w3.org/Graphics/SVG/1.1/DTD/svg11.dtd">
<!-- Generated by graphviz version 2.26.3 (20100126.1600)
 -->
<!-- Title: G Pages: 1 -->
<svg width="451pt" height="538pt"
 viewBox="0.00 0.00 451.00 538.00" xmlns="http://www.w3.org/2000/svg" xmlns:xlink="http://www.w3.org/1999/xlink">
<g id="graph1" class="graph" transform="scale(1 1) rotate(0) translate(4 534)">
<title>G</title>
<polygon fill="white" stroke="white" points="-4,5 -4,-534 448,-534 448,5 -4,5"/>
<!-- 0 -->
<g id="node1" class="node"><title>0</title>
<ellipse fill="none" stroke="black" cx="87" cy="-183" rx="86.9741" ry="18.3848"/>
<text text-anchor="middle" x="87" y="-179.4" font-family="Times Roman,serif" font-size="14.00">function Parent</text>
</g>
<!-- 3 -->
<g id="node4" class="node"><title>3</title>
<ellipse fill="none" stroke="black" cx="187" cy="-347" rx="27" ry="18.3848"/>
<text text-anchor="middle" x="187" y="-343.4" font-family="Times Roman,serif" font-size="14.00">{}</text>
</g>
<!-- 0&#45;&gt;3 -->
<g id="edge2" class="edge"><title>0&#45;&gt;3</title>
<path fill="none" stroke="black" d="M81.6552,-201.588C77.2061,-220.839 73.2965,-251.232 85,-274 99.4136,-302.04 130.149,-321.713 154.133,-333.514"/>
<polygon fill="black" stroke="black" points="152.734,-336.724 163.274,-337.799 155.705,-330.385 152.734,-336.724"/>
<text text-anchor="middle" x="119" y="-261.4" font-family="Times Roman,serif" font-size="14.00">prototype</text>
</g>
<!-- 1 -->
<g id="node2" class="node"><title>1</title>
<ellipse fill="none" stroke="black" cx="202" cy="-19" rx="79.196" ry="18.3848"/>
<text text-anchor="middle" x="202" y="-15.4" font-family="Times Roman,serif" font-size="14.00">function Child</text>
</g>
<!-- 4 -->
<g id="node5" class="node"><title>4</title>
<ellipse fill="none" stroke="black" cx="309" cy="-183" rx="27" ry="18.3848"/>
<text text-anchor="middle" x="309" y="-179.4" font-family="Times Roman,serif" font-size="14.00">{}</text>
</g>
<!-- 1&#45;&gt;4 -->
<g id="edge4" class="edge"><title>1&#45;&gt;4</title>
<path fill="none" stroke="black" d="M200.175,-37.7507C199.18,-57.1337 200.18,-87.6337 213,-110 227.76,-135.749 255.607,-155.365 277.524,-167.745"/>
<polygon fill="black" stroke="black" points="276.038,-170.92 286.498,-172.604 279.371,-164.765 276.038,-170.92"/>
<text text-anchor="middle" x="247" y="-97.4" font-family="Times Roman,serif" font-size="14.00">prototype</text>
</g>
<!-- 2 -->
<g id="node3" class="node"><title>2</title>
<ellipse fill="none" stroke="black" cx="416" cy="-19" rx="27" ry="18.3848"/>
<text text-anchor="middle" x="416" y="-15.4" font-family="Times Roman,serif" font-size="14.00">ch</text>
</g>
<!-- 2&#45;&gt;4 -->
<g id="edge8" class="edge"><title>2&#45;&gt;4</title>
<path fill="none" stroke="black" d="M404.952,-35.9332C386.13,-64.7815 347.744,-123.617 325.654,-157.474"/>
<polygon fill="black" stroke="black" points="322.681,-155.626 320.148,-165.913 328.544,-159.451 322.681,-155.626"/>
<text text-anchor="middle" x="398.5" y="-97.4" font-family="Times Roman,serif" font-size="14.00">__proto__</text>
</g>
<!-- 5 -->
<g id="node6" class="node"><title>5</title>
<ellipse fill="none" stroke="black" cx="187" cy="-511" rx="63.1385" ry="18.3848"/>
<text text-anchor="middle" x="187" y="-507.4" font-family="Times Roman,serif" font-size="14.00">function hi</text>
</g>
<!-- 3&#45;&gt;5 -->
<g id="edge10" class="edge"><title>3&#45;&gt;5</title>
<path fill="none" stroke="black" d="M187,-365.813C187,-394.359 187,-448.826 187,-482.326"/>
<polygon fill="black" stroke="black" points="183.5,-482.406 187,-492.407 190.5,-482.407 183.5,-482.406"/>
<text text-anchor="middle" x="193.5" y="-425.4" font-family="Times Roman,serif" font-size="14.00">hi</text>
</g>
<!-- 4&#45;&gt;3 -->
<g id="edge6" class="edge"><title>4&#45;&gt;3</title>
<path fill="none" stroke="black" d="M296.631,-199.628C275.166,-228.482 230.903,-287.983 205.679,-321.891"/>
<polygon fill="black" stroke="black" points="202.563,-320.216 199.402,-330.328 208.179,-324.394 202.563,-320.216"/>
<text text-anchor="middle" x="284.5" y="-261.4" font-family="Times Roman,serif" font-size="14.00">__proto__</text>
</g>
</g>
</svg>
