<?xml version="1.0" standalone="no"?>
<!DOCTYPE svg PUBLIC "-//W3C//DTD SVG 1.1//EN" "http://www.w3.org/Graphics/SVG/1.1/DTD/svg11.dtd" >
<svg xmlns="http://www.w3.org/2000/svg">
<metadata>
This is a custom SVG webfont generated by Font Squirrel.
Copyright   : c Jakob Fischer at wwwpizzadudedk  DO NOT DISTRIBUTE WITHOUT AUTHORS PERMISSION
</metadata>
<defs>
<font id="webfontIqdHimp6" horiz-adv-x="753" >
<font-face units-per-em="2048" ascent="1638" descent="-410" />
<missing-glyph horiz-adv-x="378" />
<glyph unicode=" "  horiz-adv-x="378" />
<glyph unicode="&#x09;" horiz-adv-x="378" />
<glyph unicode="&#xa0;" horiz-adv-x="378" />
<glyph unicode="!" horiz-adv-x="389" d="M-43 -240l2 50l277 20l-5 -90zM-37 -98l2 49l279 20l-4 -90zM-29 41l2 49l279 21l-6 -91zM-8 459l4 49l276 20l-4 -90zM0 598l2 51l279 21l-5 -92zM8 739l2 49l277 21l-4 -90zM14 879l2 49l279 20l-4 -90zM23 1018l2 49l278 20l-6 -90zM29 1157l4 49l276 21l-4 -90z M37 1296l2 50l278 20l-6 -90zM43 1436l4 51l277 20l-5 -92z" />
<glyph unicode="&#x22;" horiz-adv-x="759" d="M-8 1296l4 50l276 20l-4 -90zM0 1436l2 51l279 20l-5 -92zM8 1577l2 49l277 21l-4 -91zM365 1296l4 50l276 20l-4 -90zM373 1436l2 51l278 20l-6 -92zM379 1577l4 49l276 21l-4 -91z" />
<glyph unicode="#" horiz-adv-x="378" />
<glyph unicode="$" horiz-adv-x="741" d="M-29 41l2 49l650 21l-5 -91zM-23 180l5 49l276 21l-4 -90zM0 598l2 51l651 21l-6 -92zM8 739l2 49l557 21l-6 -90zM14 879l2 49l279 20l-4 -90zM23 1018l2 49l278 20l-6 -90zM29 1157l4 49l649 21l-4 -90zM57 -98l2 49l463 20l-4 -90zM86 459l2 49l557 20l-4 -90z M96 -240l2 50l324 20l-4 -90zM129 1296l4 50l463 20l-4 -90zM229 1436l4 51l277 20l-4 -92zM350 180l2 49l279 21l-4 -90zM358 319l2 50l277 20l-4 -90zM395 1018l2 49l277 20l-4 -90z" />
<glyph unicode="%" horiz-adv-x="745" d="M-43 -240l2 50l277 20l-5 -90zM-37 -98l2 49l279 20l-4 -90zM-29 41l2 49l279 21l-6 -91zM-23 180l5 49l276 21l-4 -90zM-14 319l2 50l278 20l-6 -90zM23 1018l2 49l278 20l-6 -90zM29 1157l4 49l276 21l-4 -90zM37 1296l2 50l278 20l-6 -90zM86 459l2 49l279 20l-7 -90z M186 598l2 51l279 21l-6 -92zM287 739l2 49l278 21l-6 -90zM336 -98l2 49l278 20l-6 -90zM344 41l2 49l277 21l-5 -91zM350 180l2 49l279 21l-4 -90zM387 879l2 49l279 20l-6 -90zM395 1018l2 49l277 20l-4 -90zM401 1157l2 49l279 21l-4 -90zM410 1296l2 50l276 20l-4 -90z M416 1436l4 51l276 20l-4 -92z" />
<glyph unicode="&#x26;" horiz-adv-x="745" d="M-37 -98l2 49l651 20l-6 -90zM-29 41l2 49l650 21l-5 -91zM-23 180l5 49l276 21l-4 -90zM-14 319l2 50l278 20l-6 -90zM-8 459l4 49l557 20l-6 -90zM8 739l2 49l557 21l-6 -90zM14 879l2 49l279 20l-4 -90zM23 1018l2 49l278 20l-6 -90zM29 1157l4 49l649 21l-4 -90z M37 1296l2 50l649 20l-4 -90zM49 -240l2 50l465 20l-6 -90zM92 598l4 51l463 21l-4 -92zM137 1436l2 51l465 20l-6 -92zM350 180l2 49l279 21l-4 -90zM395 1018l2 49l277 20l-4 -90z" />
<glyph unicode="'" horiz-adv-x="389" d="M-8 1296l4 50l276 20l-4 -90zM0 1436l2 51l279 20l-5 -92zM8 1577l2 49l277 21l-4 -91z" />
<glyph unicode="(" horiz-adv-x="479" d="M-43 -240l2 50l371 20l-4 -90zM-37 -98l2 49l371 20l-4 -90zM-29 41l2 49l279 21l-6 -91zM-23 180l5 49l276 21l-4 -90zM-14 319l2 50l278 20l-6 -90zM-8 459l4 49l276 20l-4 -90zM0 598l2 51l279 21l-5 -92zM8 739l2 49l277 21l-4 -90zM14 879l2 49l279 20l-4 -90z M23 1018l2 49l278 20l-6 -90zM29 1157l4 49l276 21l-4 -90zM37 1296l2 50l371 20l-4 -90zM41 -379l4 49l277 21l-5 -90zM43 1436l4 51l371 20l-6 -92zM145 1577l2 49l277 21l-4 -91z" />
<glyph unicode=")" horiz-adv-x="483" d="M-51 -379l276 -20l4 90l-278 -21zM-43 -240l369 -20l4 90l-371 -20zM-37 -98l369 -21l4 90l-371 -20zM37 1296l369 -20l4 90l-371 -20zM43 1436l369 -21l6 92l-371 -20zM51 1577l277 -21l4 91l-279 -21zM63 41l277 -21l4 91l-278 -21zM72 180l274 -20l6 90l-278 -21z M78 319l276 -20l4 90l-276 -20zM86 459l274 -21l7 90l-279 -20zM92 598l277 -20l4 92l-277 -21zM100 739l277 -20l4 90l-279 -21zM109 879l274 -21l4 90l-276 -20zM115 1018l276 -21l4 90l-278 -20zM123 1157l274 -20l6 90l-278 -21z" />
<glyph unicode="*" horiz-adv-x="745" d="M-23 180l5 49l276 21l-4 -90zM-14 319l2 50l278 20l-6 -90zM-8 459l4 49l649 20l-4 -90zM8 739l2 49l649 21l-4 -90zM14 879l2 49l279 20l-4 -90zM23 1018l2 49l278 20l-6 -90zM92 598l4 51l463 21l-4 -92zM350 180l2 49l279 21l-4 -90zM358 319l2 50l277 20l-4 -90z M387 879l2 49l279 20l-6 -90zM395 1018l2 49l277 20l-4 -90z" />
<glyph unicode="+" horiz-adv-x="739" d="M-8 459l4 49l649 20l-4 -90zM0 598l2 51l651 21l-6 -92zM8 739l2 49l649 21l-4 -90zM164 180l2 49l278 21l-4 -90zM172 319l2 50l279 20l-7 -90zM201 879l2 49l278 20l-4 -90zM209 1018l2 49l276 20l-4 -90z" />
<glyph unicode="," horiz-adv-x="401" d="M-10 -379l2 49l276 21l-4 -90zM-4 -240l4 50l276 20l-4 -90zM4 -98l2 49l279 20l-6 -90zM10 41l4 49l277 21l-4 -91z" />
<glyph unicode="-" horiz-adv-x="757" d="M-8 459l4 49l649 20l-4 -90zM0 598l2 51l651 21l-6 -92zM8 739l2 49l649 21l-4 -90z" />
<glyph unicode="." horiz-adv-x="401" d="M-8 -240l4 50l276 20l-4 -90zM0 -98l2 49l279 20l-5 -90zM8 41l2 49l277 21l-4 -91z" />
<glyph unicode="/" horiz-adv-x="743" d="M-43 -240l2 50l277 20l-5 -90zM-37 -98l2 49l279 20l-4 -90zM-29 41l2 49l279 21l-6 -91zM-23 180l5 49l276 21l-4 -90zM-14 319l2 50l278 20l-6 -90zM86 459l2 49l279 20l-7 -90zM186 598l2 51l279 21l-6 -92zM287 739l2 49l278 21l-6 -90zM387 879l2 49l279 20l-6 -90z M395 1018l2 49l277 20l-4 -90zM401 1157l2 49l279 21l-4 -90zM410 1296l2 50l276 20l-4 -90zM416 1436l4 51l276 20l-4 -92z" />
<glyph unicode="0" d="M-37 -98l2 49l651 20l-6 -90zM-29 41l2 49l650 21l-5 -91zM-23 180l5 49l276 21l-4 -90zM-14 319l2 50l278 20l-6 -90zM-8 459l4 49l276 20l-4 -90zM0 598l2 51l279 21l-5 -92zM8 739l2 49l277 21l-4 -90zM14 879l2 49l279 20l-4 -90zM23 1018l2 49l278 20l-6 -90z M29 1157l4 49l649 21l-4 -90zM37 1296l2 50l649 20l-4 -90zM49 -240l2 50l465 20l-6 -90zM137 1436l2 51l465 20l-6 -92zM350 180l2 49l279 21l-4 -90zM358 319l2 50l277 20l-4 -90zM365 459l4 49l276 20l-4 -90zM373 598l2 51l278 21l-6 -92zM379 739l4 49l276 21l-4 -90z M387 879l2 49l279 20l-6 -90zM395 1018l2 49l277 20l-4 -90z" />
<glyph unicode="1" horiz-adv-x="569" d="M-43 -240l2 50l463 20l-4 -90zM-37 -98l2 49l465 20l-4 -90zM-29 41l2 49l463 21l-4 -91zM29 1157l4 49l370 21l-6 -90zM37 1296l2 50l371 20l-4 -90zM43 1436l4 51l371 20l-6 -92zM72 180l2 49l278 21l-6 -90zM78 319l4 50l276 20l-4 -90zM86 459l2 49l279 20l-7 -90z M92 598l4 51l277 21l-4 -92zM100 739l2 49l279 21l-4 -90zM109 879l2 49l276 20l-4 -90zM115 1018l2 49l278 20l-4 -90z" />
<glyph unicode="2" horiz-adv-x="751" d="M-43 -240l2 52l649 20l-4 -92zM-37 -98l2 49l651 20l-6 -90zM-29 41l2 49l650 21l-5 -91zM-23 180l5 49l276 21l-4 -90zM-14 319l2 50l278 20l-6 -90zM-8 459l4 49l557 20l-6 -90zM0 598l2 51l651 21l-6 -92zM29 1157l4 49l649 21l-4 -90zM37 1296l2 50l649 20l-4 -90z M43 1436l4 51l557 20l-6 -92zM100 739l2 49l557 21l-4 -90zM387 879l2 49l279 20l-6 -90zM395 1018l2 49l277 20l-4 -90z" />
<glyph unicode="3" d="M-43 -240l2 52l557 20l-6 -92zM-37 -98l2 49l651 20l-6 -90zM-29 41l2 49l650 21l-5 -91zM29 1157l4 49l649 21l-4 -90zM37 1296l2 50l649 20l-4 -90zM43 1436l4 51l557 20l-6 -92zM86 459l2 49l557 20l-4 -90zM92 598l4 51l463 21l-4 -92zM100 739l2 49l557 21l-4 -90z M350 180l2 49l279 21l-4 -90zM358 319l2 50l277 20l-4 -90zM387 879l2 49l279 20l-6 -90zM395 1018l2 49l277 20l-4 -90z" />
<glyph unicode="4" horiz-adv-x="757" d="M-8 459l4 49l649 20l-4 -90zM0 598l2 51l651 21l-6 -92zM8 739l2 49l649 21l-4 -90zM14 879l2 49l279 20l-4 -90zM23 1018l2 49l278 20l-6 -90zM29 1157l4 49l276 21l-4 -90zM37 1296l2 50l278 20l-6 -90zM43 1436l4 51l277 20l-5 -92zM328 -240l4 50l276 20l-4 -90z M336 -98l2 49l278 20l-6 -90zM344 41l2 49l277 21l-5 -91zM350 180l2 49l279 21l-4 -90zM358 319l2 50l277 20l-4 -90zM387 879l2 49l279 20l-6 -90zM395 1018l2 49l277 20l-4 -90zM401 1157l2 49l279 21l-4 -90zM410 1296l2 50l276 20l-4 -90zM416 1436l4 51l276 20l-4 -92 z" />
<glyph unicode="5" horiz-adv-x="751" d="M-43 -240l2 52l557 20l-6 -92zM-37 -98l2 49l651 20l-6 -90zM-29 41l2 49l650 21l-5 -91zM0 598l2 51l651 21l-6 -92zM8 739l2 49l649 21l-4 -90zM14 879l2 49l557 20l-4 -90zM23 1018l2 49l278 20l-6 -90zM29 1157l4 49l649 21l-4 -90zM37 1296l2 50l649 20l-4 -90z M43 1436l4 51l649 20l-4 -92zM350 180l2 49l279 21l-4 -90zM358 319l2 50l277 20l-4 -90zM365 459l4 49l276 20l-4 -90z" />
<glyph unicode="6" horiz-adv-x="747" d="M-37 -98l2 49l651 20l-6 -90zM-29 41l2 49l650 21l-5 -91zM-23 180l5 49l276 21l-4 -90zM-14 319l2 50l278 20l-6 -90zM-8 459l4 49l649 20l-4 -90zM0 598l2 51l651 21l-6 -92zM8 739l2 49l557 21l-6 -90zM14 879l2 49l279 20l-4 -90zM23 1018l2 49l278 20l-6 -90z M29 1157l4 49l555 21l-4 -90zM37 1296l2 50l557 20l-4 -90zM49 -240l2 50l465 20l-6 -90zM137 1436l2 51l465 20l-6 -92zM350 180l2 49l279 21l-4 -90zM358 319l2 50l277 20l-4 -90z" />
<glyph unicode="7" d="M23 1018l2 49l278 20l-6 -90zM29 1157l4 49l649 21l-4 -90zM37 1296l2 50l649 20l-4 -90zM43 1436l4 51l649 20l-4 -92zM141 -260l4 90h277l-4 -90h-277zM150 -119l4 90h276l-4 -90h-276zM156 20l4 91h276l-4 -91h-276zM164 160l4 90h276l-4 -90h-276zM264 299l4 90h277 l-4 -90h-277zM270 438l6 90h277l-6 -90h-277zM371 578l6 92h276l-6 -92h-276zM379 719l4 90h276l-4 -90h-276zM387 879l2 49l279 20l-6 -90zM395 1018l2 49l277 20l-4 -90z" />
<glyph unicode="8" d="M-37 -98l2 49l651 20l-6 -90zM-29 41l2 49l650 21l-5 -91zM-23 180l5 49l276 21l-4 -90zM-14 319l2 50l278 20l-6 -90zM-8 459l4 49l649 20l-4 -90zM8 739l2 49l649 21l-4 -90zM14 879l2 49l279 20l-4 -90zM23 1018l2 49l278 20l-6 -90zM29 1157l4 49l649 21l-4 -90z M37 1296l2 50l649 20l-4 -90zM49 -240l2 50l465 20l-6 -90zM92 598l4 51l463 21l-4 -92zM137 1436l2 51l465 20l-6 -92zM350 180l2 49l279 21l-4 -90zM358 319l2 50l277 20l-4 -90zM387 879l2 49l279 20l-6 -90zM395 1018l2 49l277 20l-4 -90z" />
<glyph unicode="9" d="M0 598l2 51l651 21l-6 -92zM8 739l2 49l649 21l-4 -90zM14 879l2 49l279 20l-4 -90zM23 1018l2 49l278 20l-6 -90zM29 1157l4 49l649 21l-4 -90zM37 1296l2 50l649 20l-4 -90zM49 -240l2 50l465 20l-6 -90zM57 -98l2 49l557 20l-6 -90zM63 41l3 49l557 21l-5 -91zM86 459 l2 49l557 20l-4 -90zM137 1436l2 51l465 20l-6 -92zM350 180l2 49l279 21l-4 -90zM358 319l2 50l277 20l-4 -90zM387 879l2 49l279 20l-6 -90zM395 1018l2 49l277 20l-4 -90z" />
<glyph unicode=":" horiz-adv-x="387" d="M-25 -240l2 50l277 20l-4 -90zM-18 -98l2 49l278 20l-4 -90zM-10 41l2 49l276 21l-4 -91zM10 459l4 49l277 20l-4 -90zM18 598l2 51l279 21l-6 -92zM27 739l2 49l276 21l-4 -90z" />
<glyph unicode=";" horiz-adv-x="387" d="M-29 -379l2 49l279 21l-6 -90zM-23 -240l5 50l276 20l-4 -90zM-14 -98l2 49l278 20l-6 -90zM-8 41l4 49l276 21l-4 -91zM14 459l2 49l279 20l-4 -90zM23 598l2 51l278 21l-6 -92zM29 739l4 49l276 21l-4 -90z" />
<glyph unicode="&#x3c;" horiz-adv-x="636" d="M0 598l2 51l279 21l-5 -92zM86 459l2 49l279 20l-7 -90zM100 739l2 49l279 21l-4 -90zM172 319l2 50l279 20l-7 -90zM201 879l2 49l278 20l-4 -90zM258 180l2 49l277 21l-5 -90zM301 1018l2 49l279 20l-4 -90z" />
<glyph unicode="=" horiz-adv-x="735" d="M-23 180l5 49l649 21l-4 -90zM-14 319l2 50l649 20l-4 -90zM-8 459l4 49l649 20l-4 -90zM8 739l2 49l649 21l-4 -90zM14 879l2 49l652 20l-6 -90zM23 1018l2 49l649 20l-4 -90z" />
<glyph unicode="&#x3e;" horiz-adv-x="638" d="M-23 180l277 -20l4 90l-276 -21zM23 1018l274 -21l6 90l-278 -20zM78 319l276 -20l4 90l-276 -20zM109 879l274 -21l4 90l-276 -20zM178 459l277 -21l4 90l-277 -20zM195 739l274 -20l4 90l-276 -21zM279 598l276 -20l4 92l-276 -21z" />
<glyph unicode="?" horiz-adv-x="743" d="M29 1157l4 49l649 21l-4 -90zM37 1296l2 50l649 20l-4 -90zM43 1436l4 51l557 20l-6 -92zM49 -240l2 50l279 20l-4 -90zM57 -98l2 49l277 20l-4 -90zM63 41l3 49l278 21l-4 -91zM78 319l4 50l276 20l-4 -90zM86 459l2 49l465 20l-6 -90zM92 598l4 51l557 21l-6 -92z M195 739l2 49l462 21l-4 -90zM387 879l2 49l279 20l-6 -90zM395 1018l2 49l277 20l-4 -90z" />
<glyph unicode="@" horiz-adv-x="1099" d="M-37 -98l2 49l930 20l-4 -90zM-29 41l2 49l930 21l-6 -91zM-23 180l5 49l276 21l-4 -90zM-14 319l2 50l278 20l-6 -90zM-8 459l4 49l276 20l-4 -90zM0 598l2 51l279 21l-5 -92zM8 739l2 49l277 21l-4 -90zM14 879l2 49l279 20l-4 -90zM23 1018l2 49l278 20l-6 -90z M29 1157l4 49l1022 21l-6 -90zM37 1296l2 50q-135 0 168 8q272 6 446 8q270 4 408 4l-4 -90zM49 -240l2 52l838 20l-6 -92zM137 1436l2 51l836 20l-4 -92zM365 459l4 49l555 20l-4 -90zM373 598l2 51l649 21l-4 -92zM379 739l4 49l649 21l-4 -90zM760 879l2 49l278 20 l-6 -90zM766 1018l4 49l277 20l-5 -90z" />
<glyph unicode="A" horiz-adv-x="757" d="M-43 -240l2 50l277 20l-5 -90zM-37 -98l2 49l279 20l-4 -90zM-29 41l2 49l279 21l-6 -91zM-23 180l5 49l276 21l-4 -90zM-14 319l2 50l278 20l-6 -90zM-8 459l4 49l649 20l-4 -90zM0 598l2 51l651 21l-6 -92zM8 739l2 49l649 21l-4 -90zM14 879l2 49l279 20l-4 -90z M23 1018l2 49l278 20l-6 -90zM29 1157l4 49l649 21l-4 -90zM37 1296l2 50l649 20l-4 -90zM137 1436l2 51l465 20l-6 -92zM328 -240l4 50l276 20l-4 -90zM336 -98l2 49l278 20l-6 -90zM344 41l2 49l277 21l-5 -91zM350 180l2 49l279 21l-4 -90zM358 319l2 50l277 20l-4 -90z M387 879l2 49l279 20l-6 -90zM395 1018l2 49l277 20l-4 -90z" />
<glyph unicode="B" d="M-43 -240l2 52l557 20l-6 -92zM-37 -98l2 49l651 20l-6 -90zM-29 41l2 49l650 21l-5 -91zM-23 180l5 49l276 21l-4 -90zM-14 319l2 50l278 20l-6 -90zM-8 459l4 49l649 20l-4 -90zM0 598l2 51l557 21l-4 -92zM8 739l2 49l649 21l-4 -90zM14 879l2 49l279 20l-4 -90z M23 1018l2 49l278 20l-6 -90zM29 1157l4 49l649 21l-4 -90zM37 1296l2 50l649 20l-4 -90zM43 1436l4 51l557 20l-6 -92zM350 180l2 49l279 21l-4 -90zM358 319l2 50l277 20l-4 -90zM387 879l2 49l279 20l-6 -90zM395 1018l2 49l277 20l-4 -90z" />
<glyph unicode="C" horiz-adv-x="747" d="M-37 -98l2 49l651 20l-6 -90zM-29 41l2 49l650 21l-5 -91zM-23 180l5 49l276 21l-4 -90zM-14 319l2 50l278 20l-6 -90zM-8 459l4 49l276 20l-4 -90zM0 598l2 51l279 21l-5 -92zM8 739l2 49l277 21l-4 -90zM14 879l2 49l279 20l-4 -90zM23 1018l2 49l278 20l-6 -90z M29 1157l4 49l649 21l-4 -90zM37 1296l2 50l649 20l-4 -90zM49 -240l2 50l465 20l-6 -90zM137 1436l2 51l418 20l-4 -92zM350 180l2 49l279 21l-4 -90zM395 1018l2 49l277 20l-4 -90z" />
<glyph unicode="D" d="M-43 -240l2 52l557 20l-6 -92zM-37 -98l2 49l651 20l-6 -90zM-29 41l2 49l650 21l-5 -91zM-23 180l5 49l276 21l-4 -90zM-14 319l2 50l278 20l-6 -90zM-8 459l4 49l276 20l-4 -90zM0 598l2 51l279 21l-5 -92zM8 739l2 49l277 21l-4 -90zM14 879l2 49l279 20l-4 -90z M23 1018l2 49l278 20l-6 -90zM29 1157l4 49l649 21l-4 -90zM37 1296l2 50l649 20l-4 -90zM43 1436l4 51l557 20l-6 -92zM350 180l2 49l279 21l-4 -90zM358 319l2 50l277 20l-4 -90zM365 459l4 49l276 20l-4 -90zM373 598l2 51l278 21l-6 -92zM379 739l4 49l276 21l-4 -90z M387 879l2 49l279 20l-6 -90zM395 1018l2 49l277 20l-4 -90z" />
<glyph unicode="E" horiz-adv-x="747" d="M-43 -240l2 52l649 20l-4 -92zM-37 -98l2 49l651 20l-6 -90zM-29 41l2 49l650 21l-5 -91zM-23 180l5 49l276 21l-4 -90zM-14 319l2 50l278 20l-6 -90zM-8 459l4 49l649 20l-4 -90zM0 598l2 51l651 21l-6 -92zM8 739l2 49l649 21l-4 -90zM14 879l2 49l279 20l-4 -90z M23 1018l2 49l278 20l-6 -90zM29 1157l4 49l649 21l-4 -90zM37 1296l2 50l649 20l-4 -90zM43 1436l4 51l649 20l-4 -92z" />
<glyph unicode="F" horiz-adv-x="743" d="M-43 -240l2 50l277 20l-5 -90zM-37 -98l2 49l279 20l-4 -90zM-29 41l2 49l279 21l-6 -91zM-23 180l5 49l276 21l-4 -90zM-14 319l2 50l278 20l-6 -90zM-8 459l4 49l649 20l-4 -90zM0 598l2 51l651 21l-6 -92zM8 739l2 49l649 21l-4 -90zM14 879l2 49l279 20l-4 -90z M23 1018l2 49l278 20l-6 -90zM29 1157l4 49l649 21l-4 -90zM37 1296l2 50l649 20l-4 -90zM43 1436l4 51l649 20l-4 -92z" />
<glyph unicode="G" horiz-adv-x="751" d="M-37 -98l2 49l651 20l-6 -90zM-29 41l2 49l650 21l-5 -91zM-23 180l5 49l276 21l-4 -90zM-14 319l2 50l278 20l-6 -90zM-8 459l4 49l276 20l-4 -90zM0 598l2 51l279 21l-5 -92zM8 739l2 49l277 21l-4 -90zM14 879l2 49l279 20l-4 -90zM23 1018l2 49l278 20l-6 -90z M29 1157l4 49l649 21l-4 -90zM37 1296l2 50l649 20l-4 -90zM49 -240l2 50l465 20l-6 -90zM137 1436l2 51l465 20l-6 -92zM350 180l2 49l279 21l-4 -90zM358 319l2 50l277 20l-4 -90zM365 459l4 49l276 20l-4 -90zM373 598l2 51l278 21l-6 -92zM379 739l4 49l276 21l-4 -90z M395 1018l2 49l277 20l-4 -90z" />
<glyph unicode="H" horiz-adv-x="757" d="M-43 -240l2 50l277 20l-5 -90zM-37 -98l2 49l279 20l-4 -90zM-29 41l2 49l279 21l-6 -91zM-23 180l5 49l276 21l-4 -90zM-14 319l2 50l278 20l-6 -90zM-8 459l4 49l649 20l-4 -90zM0 598l2 51l651 21l-6 -92zM8 739l2 49l649 21l-4 -90zM14 879l2 49l279 20l-4 -90z M23 1018l2 49l278 20l-6 -90zM29 1157l4 49l276 21l-4 -90zM37 1296l2 50l278 20l-6 -90zM43 1436l4 51l277 20l-5 -92zM328 -240l4 50l276 20l-4 -90zM336 -98l2 49l278 20l-6 -90zM344 41l2 49l277 21l-5 -91zM350 180l2 49l279 21l-4 -90zM358 319l2 50l277 20l-4 -90z M387 879l2 49l279 20l-6 -90zM395 1018l2 49l277 20l-4 -90zM401 1157l2 49l279 21l-4 -90zM410 1296l2 50l276 20l-4 -90zM416 1436l4 51l276 20l-4 -92z" />
<glyph unicode="I" horiz-adv-x="571" d="M-43 -240l2 50l463 20l-4 -90zM-37 -98l2 49l465 20l-4 -90zM-29 41l2 49l463 21l-4 -91zM29 1157l4 49l463 21l-4 -90zM37 1296l2 50l465 20l-6 -90zM43 1436l4 51l463 20l-4 -92zM72 180l2 49l278 21l-6 -90zM78 319l4 50l276 20l-4 -90zM86 459l2 49l279 20l-7 -90z M92 598l4 51l277 21l-4 -92zM100 739l2 49l279 21l-4 -90zM109 879l2 49l276 20l-4 -90zM115 1018l2 49l278 20l-4 -90z" />
<glyph unicode="J" d="M-37 -98l2 49l651 20l-6 -90zM-29 41l2 49l650 21l-5 -91zM-23 180l5 49l276 21l-4 -90zM49 -240l2 50l465 20l-6 -90zM309 1157l2 49l371 21l-4 -90zM315 1296l4 50l369 20l-4 -90zM324 1436l2 51l370 20l-4 -92zM350 180l2 49l279 21l-4 -90zM358 319l2 50l277 20 l-4 -90zM365 459l4 49l276 20l-4 -90zM373 598l2 51l278 21l-6 -92zM379 739l4 49l276 21l-4 -90zM387 879l2 49l279 20l-6 -90zM395 1018l2 49l277 20l-4 -90z" />
<glyph unicode="K" horiz-adv-x="757" d="M-43 -240l2 50l277 20l-5 -90zM-37 -98l2 49l279 20l-4 -90zM-29 41l2 49l279 21l-6 -91zM-23 180l5 49l276 21l-4 -90zM-14 319l2 50l278 20l-6 -90zM-8 459l4 49l649 20l-4 -90zM0 598l2 51l557 21l-4 -92zM8 739l2 49l649 21l-4 -90zM14 879l2 49l279 20l-4 -90z M23 1018l2 49l278 20l-6 -90zM29 1157l4 49l276 21l-4 -90zM37 1296l2 50l278 20l-6 -90zM43 1436l4 51l277 20l-5 -92zM328 -240l4 50l276 20l-4 -90zM336 -98l2 49l278 20l-6 -90zM344 41l2 49l277 21l-5 -91zM350 180l2 49l279 21l-4 -90zM358 319l2 50l277 20l-4 -90z M387 879l2 49l279 20l-6 -90zM395 1018l2 49l277 20l-4 -90zM401 1157l2 49l279 21l-4 -90zM410 1296l2 50l276 20l-4 -90zM416 1436l4 51l276 20l-4 -92z" />
<glyph unicode="L" horiz-adv-x="712" d="M-43 -240l2 52l649 20l-4 -92zM-37 -98l2 49l651 20l-6 -90zM-29 41l2 49l650 21l-5 -91zM-23 180l5 49l276 21l-4 -90zM-14 319l2 50l278 20l-6 -90zM-8 459l4 49l276 20l-4 -90zM0 598l2 51l279 21l-5 -92zM8 739l2 49l277 21l-4 -90zM14 879l2 49l279 20l-4 -90z M23 1018l2 49l278 20l-6 -90zM29 1157l4 49l276 21l-4 -90zM37 1296l2 50l278 20l-6 -90zM43 1436l4 51l277 20l-5 -92zM350 180l2 49l279 21l-4 -90z" />
<glyph unicode="M" horiz-adv-x="1122" d="M-43 -240l2 50l277 20l-5 -90zM-37 -98l2 49l279 20l-4 -90zM-29 41l2 49l279 21l-6 -91zM-23 180l5 49l276 21l-4 -90zM-14 319l2 50l278 20l-6 -90zM-8 459l4 49l276 20l-4 -90zM0 598l2 51l279 21l-5 -92zM8 739l2 49l277 21l-4 -90zM14 879l2 49l279 20l-4 -90z M23 1018l2 49l278 20l-6 -90zM29 1157l4 49l1022 21l-6 -90zM37 1296l2 50l1022 20l-4 -90zM43 1436l4 51l463 20l-4 -92zM328 -240l4 50l276 20l-4 -90zM336 -98l2 49l278 20l-6 -90zM344 41l2 49l277 21l-5 -91zM350 180l2 49l279 21l-4 -90zM358 319l2 50l277 20l-4 -90z M365 459l4 49l276 20l-4 -90zM373 598l2 51l278 21l-6 -92zM379 739l4 49l276 21l-4 -90zM387 879l2 49l279 20l-6 -90zM395 1018l2 49l277 20l-4 -90zM602 1436l2 51l371 20l-4 -92zM700 -240l2 50l279 20l-4 -90zM709 -98l2 49l278 20l-6 -90zM715 41l4 49l276 21l-4 -91z M723 180l2 49l279 21l-7 -90zM729 319l4 50l277 20l-4 -90zM737 459l2 49l279 20l-4 -90zM745 598l3 51l276 21l-4 -92zM752 739l2 49l278 21l-4 -90zM760 879l2 49l278 20l-6 -90zM766 1018l4 49l277 20l-5 -90z" />
<glyph unicode="N" horiz-adv-x="757" d="M-43 -240l2 50l277 20l-5 -90zM-37 -98l2 49l279 20l-4 -90zM-29 41l2 49l279 21l-6 -91zM-23 180l5 49l276 21l-4 -90zM-14 319l2 50l278 20l-6 -90zM-8 459l4 49l276 20l-4 -90zM0 598l2 51l279 21l-5 -92zM8 739l2 49l277 21l-4 -90zM14 879l2 49l279 20l-4 -90z M23 1018l2 49l278 20l-6 -90zM29 1157l4 49l649 21l-4 -90zM37 1296l2 50l649 20l-4 -90zM43 1436l4 51l557 20l-6 -92zM328 -240l4 50l276 20l-4 -90zM336 -98l2 49l278 20l-6 -90zM344 41l2 49l277 21l-5 -91zM350 180l2 49l279 21l-4 -90zM358 319l2 50l277 20l-4 -90z M365 459l4 49l276 20l-4 -90zM373 598l2 51l278 21l-6 -92zM379 739l4 49l276 21l-4 -90zM387 879l2 49l279 20l-6 -90zM395 1018l2 49l277 20l-4 -90z" />
<glyph unicode="O" d="M-37 -98l2 49l651 20l-6 -90zM-29 41l2 49l650 21l-5 -91zM-23 180l5 49l276 21l-4 -90zM-14 319l2 50l278 20l-6 -90zM-8 459l4 49l276 20l-4 -90zM0 598l2 51l279 21l-5 -92zM8 739l2 49l277 21l-4 -90zM14 879l2 49l279 20l-4 -90zM23 1018l2 49l278 20l-6 -90z M29 1157l4 49l649 21l-4 -90zM37 1296l2 50l649 20l-4 -90zM49 -240l2 50l465 20l-6 -90zM137 1436l2 51l465 20l-6 -92zM350 180l2 49l279 21l-4 -90zM358 319l2 50l277 20l-4 -90zM365 459l4 49l276 20l-4 -90zM373 598l2 51l278 21l-6 -92zM379 739l4 49l276 21l-4 -90z M387 879l2 49l279 20l-6 -90zM395 1018l2 49l277 20l-4 -90z" />
<glyph unicode="P" horiz-adv-x="741" d="M-43 -240l2 50l277 20l-5 -90zM-37 -98l2 49l279 20l-4 -90zM-29 41l2 49l279 21l-6 -91zM-23 180l5 49l276 21l-4 -90zM-14 319l2 50l278 20l-6 -90zM-8 459l4 49l557 20l-6 -90zM0 598l2 51l651 21l-6 -92zM8 739l2 49l649 21l-4 -90zM14 879l2 49l279 20l-4 -90z M23 1018l2 49l278 20l-6 -90zM29 1157l4 49l649 21l-4 -90zM37 1296l2 50l649 20l-4 -90zM43 1436l4 51l557 20l-6 -92zM387 879l2 49l279 20l-6 -90zM395 1018l2 49l277 20l-4 -90z" />
<glyph unicode="Q" horiz-adv-x="757" d="M-33 -98l2 49l652 20l-7 -90zM-25 41l2 49l650 21l-4 -91zM-18 180l2 49l278 21l-4 -90zM-10 319l2 50l276 20l-4 -90zM-4 459l4 49l276 20l-4 -90zM4 598l2 51l279 21l-6 -92zM10 739l4 49l277 21l-4 -90zM18 879l2 49l279 20l-6 -90zM27 1018l2 49l276 20l-4 -90z M33 1157l2 49l651 21l-6 -90zM41 1296l2 50l649 20l-4 -90zM53 -240l2 52l557 20l-4 -92zM141 1436l2 51l463 20l-4 -92zM326 -379l2 49l276 21l-4 -90zM354 180l2 49l279 21l-6 -90zM360 319l5 50l276 20l-4 -90zM369 459l2 49l278 20l-4 -90zM377 598l2 51l276 21l-4 -92z M383 739l2 49l279 21l-5 -90zM391 879l2 49l279 20l-6 -90zM397 1018l4 49l277 20l-4 -90z" />
<glyph unicode="R" horiz-adv-x="755" d="M-43 -240l2 50l277 20l-5 -90zM-37 -98l2 49l279 20l-4 -90zM-29 41l2 49l279 21l-6 -91zM-23 180l5 49l276 21l-4 -90zM-14 319l2 50l278 20l-6 -90zM-8 459l4 49l649 20l-4 -90zM0 598l2 51l557 21l-4 -92zM8 739l2 49l649 21l-4 -90zM14 879l2 49l279 20l-4 -90z M20 1018l5 49l278 20l-6 -90zM29 1157l4 49l649 21l-4 -90zM37 1296l2 50l649 20l-4 -90zM43 1436l4 51l557 20l-6 -92zM328 -240l4 50l276 20l-4 -90zM336 -98l2 49l278 20l-6 -90zM344 41l2 49l277 21l-5 -91zM350 180l2 49l279 21l-4 -90zM358 319l2 50l277 20l-4 -90z M387 879l2 49l279 20l-6 -90zM395 1018l2 49l277 20l-4 -90z" />
<glyph unicode="S" horiz-adv-x="749" d="M-37 -98l2 49l651 20l-6 -90zM-29 41l2 49l650 21l-5 -91zM-23 180l5 49l276 21l-4 -90zM0 598l2 51l651 21l-6 -92zM8 739l2 49l557 21l-6 -90zM14 879l2 49l279 20l-4 -90zM23 1018l2 49l278 20l-6 -90zM29 1157l4 49l649 21l-4 -90zM37 1296l2 50l649 20l-4 -90z M49 -240l2 50l465 20l-6 -90zM86 459l2 49l557 20l-4 -90zM137 1436l2 51l465 20l-6 -92zM350 180l2 49l279 21l-4 -90zM358 319l2 50l277 20l-4 -90zM395 1018l2 49l277 20l-4 -90z" />
<glyph unicode="T" horiz-adv-x="751" d="M29 1157l4 49l649 21l-4 -90zM37 1296l2 50l649 20l-4 -90zM43 1436l4 51l649 20l-4 -92zM57 -98l2 49l557 20l-6 -90zM63 41l3 49l557 21l-5 -91zM72 180l2 49l278 21l-6 -90zM78 319l4 50l276 20l-4 -90zM86 459l2 49l279 20l-7 -90zM92 598l4 51l277 21l-4 -92z M100 739l2 49l279 21l-4 -90zM109 879l2 49l276 20l-4 -90zM115 1018l2 49l278 20l-4 -90zM143 -240l2 50l463 20l-4 -90z" />
<glyph unicode="U" d="M-37 -98l2 49l651 20l-6 -90zM-29 41l2 49l650 21l-5 -91zM-23 180l5 49l276 21l-4 -90zM-14 319l2 50l278 20l-6 -90zM-8 459l4 49l276 20l-4 -90zM0 598l2 51l279 21l-5 -92zM8 739l2 49l277 21l-4 -90zM14 879l2 49l279 20l-4 -90zM23 1018l2 49l278 20l-6 -90z M29 1157l4 49l276 21l-4 -90zM37 1296l2 50l278 20l-6 -90zM43 1436l4 51l277 20l-5 -92zM49 -240l2 50l465 20l-6 -90zM350 180l2 49l279 21l-4 -90zM358 319l2 50q-20 0 -19 1q0 2 115 9q163 10 181 10l-4 -90zM365 459l4 49l276 20l-4 -90zM373 598l2 51l278 21l-6 -92z M379 739l4 49l276 21l-4 -90zM387 879l2 49l279 20l-6 -90zM395 1018l2 49l277 20l-4 -90zM401 1157l2 49l279 21l-4 -90zM410 1296l2 50l276 20l-4 -90zM416 1436l4 51l276 20l-4 -92z" />
<glyph unicode="V" horiz-adv-x="751" d="M-29 41l2 49l650 21l-5 -91zM-23 180l5 49l276 21l-4 -90zM-14 319l2 50l278 20l-6 -90zM-8 459l4 49l276 20l-4 -90zM0 598l2 51l279 21l-5 -92zM8 739l2 49l277 21l-4 -90zM14 879l2 49l279 20l-4 -90zM23 1018l2 49l278 20l-6 -90zM29 1157l4 49l276 21l-4 -90z M37 1296l2 50l278 20l-6 -90zM43 1436l4 51l277 20l-5 -92zM57 -98l2 49l463 20l-4 -90q-193 0 -412 15q-64 4 -63 5q-1 1 14 1zM143 -240l2 50l277 20l-4 -90zM350 180l2 49l279 21l-4 -90zM358 319l2 50l277 20l-4 -90zM365 459l4 49l276 20l-4 -90zM373 598l2 51l278 21 l-6 -92zM379 739l4 49l276 21l-4 -90zM387 879l2 49l279 20l-6 -90zM395 1018l2 49l277 20l-4 -90zM401 1157l2 49l279 21l-4 -90zM410 1296l2 50l276 20l-4 -90zM416 1436l4 51l276 20l-4 -92z" />
<glyph unicode="W" horiz-adv-x="1118" d="M-37 -98l2 49l1024 20l-6 -90zM-29 41l2 49l1022 21l-4 -91zM-23 180l5 49l276 21l-4 -90zM-14 319l2 50l278 20l-6 -90zM-8 459l4 49l276 20l-4 -90zM0 598l2 51l279 21l-5 -92zM8 739l2 49l277 21l-4 -90zM14 879l2 49l279 20l-4 -90zM23 1018l2 49l278 20l-6 -90z M29 1157l4 49l276 21l-4 -90zM37 1296l2 50l278 20l-6 -90zM43 1436l4 51l277 20l-5 -92zM49 -240l2 50l371 20l-4 -90zM350 180l2 49l279 21l-4 -90zM358 319l2 50l277 20l-4 -90zM365 459l4 49l276 20l-4 -90zM373 598l2 51l278 21l-6 -92zM379 739l4 49l276 21l-4 -90z M387 879l2 49l279 20l-6 -90zM395 1018l2 49l277 20l-4 -90zM401 1157l2 49l279 21l-4 -90zM410 1296l2 50l276 20l-4 -90zM416 1436l4 51l276 20l-4 -92zM514 -240l4 50l371 20l-6 -90zM723 180l2 49l279 21l-7 -90zM729 319l4 50l277 20l-4 -90zM737 459l2 49l279 20 l-4 -90zM745 598l3 51l276 21l-4 -92zM752 739l2 49l278 21l-4 -90zM760 879l2 49l278 20l-6 -90zM766 1018l4 49l277 20l-5 -90zM774 1157l2 49l279 21l-6 -90zM782 1296l2 50l277 20l-4 -90zM788 1436l3 51l278 20l-4 -92z" />
<glyph unicode="X" horiz-adv-x="757" d="M-43 -240l2 50l277 20l-5 -90zM-37 -98l2 49l279 20l-4 -90zM-29 41l2 49l279 21l-6 -91zM-23 180l5 49l276 21l-4 -90zM-14 319l2 50l278 20l-6 -90zM-8 459l4 49l649 20l-4 -90zM8 739l2 49l649 21l-4 -90zM14 879l2 49l279 20l-4 -90zM23 1018l2 49l278 20l-6 -90z M29 1157l4 49l276 21l-4 -90zM37 1296l2 50l278 20l-6 -90zM43 1436l4 51l277 20l-5 -92zM92 598l4 51h7q30 0 188 8q215 12 268 13l-4 -92zM328 -240l4 50l276 20l-4 -90zM336 -98l2 49l278 20l-6 -90zM344 41l2 49l277 21l-5 -91zM350 180l2 49l279 21l-4 -90zM358 319 l2 50l277 20l-4 -90zM387 879l2 49l279 20l-6 -90zM395 1018l2 49l277 20l-4 -90zM401 1157l2 49l279 21l-4 -90zM410 1296l2 50l276 20l-4 -90zM416 1436l4 51l276 20l-4 -92z" />
<glyph unicode="Y" d="M-37 -98l2 49l651 20l-6 -90zM-29 41l2 49l650 21l-5 -91zM-23 180l5 49l276 21l-4 -90zM0 598l2 51l651 21l-6 -92zM8 739l2 49l649 21l-4 -90zM14 879l2 49l279 20l-4 -90zM23 1018l2 49l278 20l-6 -90zM29 1157l4 49l276 21l-4 -90zM37 1296l2 50l278 20l-6 -90z M43 1436l4 51l277 20l-5 -92zM49 -240l2 50l465 20l-6 -90zM86 459l2 49l557 20l-4 -90zM350 180l2 49l279 21l-4 -90zM358 319l2 50l277 20l-4 -90zM387 879l2 49l279 20l-6 -90zM395 1018l2 49l277 20l-4 -90zM401 1157l2 49l279 21l-4 -90zM410 1296l2 50l276 20l-4 -90z M416 1436l4 51l276 20l-4 -92z" />
<glyph unicode="Z" horiz-adv-x="751" d="M-43 -240l2 52l649 20l-4 -92zM-37 -98l2 49l651 20l-6 -90zM-29 41l2 49l650 21l-5 -91zM-23 180q0 16 5 49l276 21l-4 -90zM-14 319l2 50l278 20l-6 -90zM23 1018l2 49l278 20l-6 -90zM29 1157l4 49l649 21l-4 -90zM37 1296l2 50l649 20l-4 -90zM43 1436l4 51l649 20 l-4 -92zM86 459l2 49l279 20l-7 -90zM186 598l2 51l279 21l-6 -92zM287 739l2 49l278 21l-6 -90zM350 180l2 49l279 21l-4 -90zM387 879l2 49l279 20l-6 -90zM395 1018l2 49l277 20l-4 -90z" />
<glyph unicode="[" horiz-adv-x="479" d="M-51 -379l2 49l371 21l-5 -90zM-43 -240l2 50l371 20l-4 -90zM-37 -98l2 49l371 20l-4 -90zM-29 41l2 49l279 21l-6 -91zM-23 180l5 49l276 21l-4 -90zM-14 319l2 50l278 20l-6 -90zM-8 459l4 49l276 20l-4 -90zM0 598l2 51l279 21l-5 -92zM8 739l2 49l277 21l-4 -90z M14 879l2 49l279 20l-4 -90zM23 1018l2 49l278 20l-6 -90zM29 1157l4 49l276 21l-4 -90zM37 1296l2 50l371 20l-4 -90zM43 1436l4 51l371 20l-6 -92zM51 1577l2 49l371 21l-4 -91z" />
<glyph unicode="\" horiz-adv-x="747" d="M14 879l277 -21l4 90l-279 -20zM23 1018l274 -21l6 90l-278 -20zM29 1157l276 -20l4 90l-276 -21zM37 1296l274 -20l6 90l-278 -20zM43 1436l276 -21l5 92l-277 -20zM100 739l277 -20l4 90l-279 -21zM186 598l275 -20l6 92l-279 -21zM272 459l275 -21l6 90l-279 -20z M328 -240l276 -20l4 90l-276 -20zM336 -98l274 -21l6 90l-278 -20zM344 41l274 -21l5 91l-277 -21zM350 180l277 -20l4 90l-279 -21zM358 319l275 -20l4 90l-277 -20z" />
<glyph unicode="]" horiz-adv-x="485" d="M-51 -379l368 -20l5 90l-371 -21zM-43 -240l369 -20l4 90l-371 -20zM-37 -98l369 -21l4 90l-371 -20zM37 1296l369 -20l4 90l-371 -20zM43 1436l369 -21l6 92l-371 -20zM51 1577l369 -21l4 91l-371 -21zM63 41l277 -21l4 91l-278 -21zM72 180l274 -20l6 90l-278 -21z M78 319l276 -20l4 90l-276 -20zM86 459l274 -21l7 90l-279 -20zM92 598l277 -20l4 92l-277 -21zM100 739l277 -20l4 90l-279 -21zM109 879l274 -21l4 90l-276 -20zM115 1018l276 -21l4 90l-278 -20zM123 1157l274 -20l6 90l-278 -21z" />
<glyph unicode="^" horiz-adv-x="755" d="M-10 1018l2 49l276 20l-4 -90zM-4 1157l4 49l649 21l-4 -90zM96 1296l4 50l463 20l-4 -90zM197 1436l4 51l276 20l-4 -92zM360 1018l5 49l276 20l-4 -90z" />
<glyph unicode="_" horiz-adv-x="768" d="M-8 -240l4 52l649 20l-4 -92zM0 -98l2 49l651 20l-6 -90zM8 41l2 49l649 21l-4 -91z" />
<glyph unicode="`" horiz-adv-x="389" d="M-8 1296l4 50l276 20l-4 -90zM0 1436l2 51l279 20l-5 -92zM8 1577l2 49l277 21l-4 -91z" />
<glyph unicode="a" horiz-adv-x="759" d="M-29 -98l2 49l650 20l-5 -90zM-23 41l5 49l649 21l-4 -91zM-14 180l2 49l278 21l-6 -90zM-8 319l4 50l649 20l-4 -90zM0 459l2 49l651 20l-6 -90zM57 -240l2 52l557 20l-6 -92zM100 598l2 51l557 21l-4 -92zM115 879l2 49l557 20l-4 -90zM123 1018l2 49l557 20l-4 -90z M129 1157l4 49l463 21l-4 -90zM358 180l2 49l277 21l-4 -90zM387 739l2 49l279 21l-6 -90z" />
<glyph unicode="b" horiz-adv-x="755" d="M-41 -240l4 52l557 20l-6 -92zM-33 -98l2 49l652 20l-7 -90zM-25 41l2 49l650 21l-4 -91zM-18 180l2 49l278 21l-4 -90zM-10 319l2 50l276 20l-4 -90zM-4 459l4 49l276 20l-4 -90zM4 598l2 51l279 21l-6 -92zM10 739l4 49l277 21l-4 -90zM18 879l2 49l652 20l-6 -90z M27 1018l2 49l649 20l-4 -90zM33 1157l2 49l557 21l-4 -90zM41 1296l2 50l276 20l-4 -90zM354 180l2 49l279 21l-6 -90zM360 319l5 50l276 20l-4 -90zM369 459l2 49l278 20l-4 -90zM377 598l2 51l276 21l-4 -92zM383 739l2 49l279 21l-5 -90z" />
<glyph unicode="c" horiz-adv-x="747" d="M-29 -98l2 49l650 20l-5 -90zM-23 41l5 49l649 21l-4 -91zM-14 180l2 49l278 21l-6 -90zM-8 319l4 50l276 20l-4 -90zM0 459l2 49l279 20l-5 -90zM8 598l2 51l277 21l-4 -92zM14 739l2 49l279 21l-4 -90zM23 879l2 49l649 20l-4 -90zM29 1018l4 49l649 20l-4 -90z M57 -240l2 52l557 20l-6 -92zM129 1157l4 49l555 21l-4 -90z" />
<glyph unicode="d" horiz-adv-x="770" d="M-33 -98l2 49l652 20l-7 -90zM-25 41l2 49l650 21l-4 -91zM-18 180l2 49l278 21l-4 -90zM-10 319l2 50l276 20l-4 -90zM-4 459l4 49l276 20l-4 -90zM4 598l2 51l279 21l-6 -92zM10 739l4 49l277 21l-4 -90zM18 879l2 49l652 20l-6 -90zM27 1018l2 49l649 20l-4 -90z M53 -240l2 52l557 20l-4 -92zM127 1157l2 49l557 21l-6 -90zM354 180l2 49l279 21l-6 -90zM360 319l5 50l276 20l-4 -90zM369 459l2 49l278 20l-4 -90zM377 598l2 51l276 21l-4 -92zM383 739l2 49l279 21l-5 -90zM412 1296l4 50l276 20l-4 -90z" />
<glyph unicode="e" horiz-adv-x="731" d="M-29 -98l2 49l557 20l-4 -90zM-23 41l5 49l555 21l-5 -91zM-14 180l2 49l278 21l-6 -90zM-8 319l4 50l649 20l-4 -90zM0 459l2 49l651 20l-6 -90zM8 598l2 51l649 21l-4 -92zM14 739l2 49l279 21l-4 -90zM23 879l2 49l649 20l-4 -90zM29 1018l4 49l649 20l-4 -90z M57 -240l2 50l463 20l-4 -90zM129 1157l4 49l463 21l-4 -90zM387 739l2 49l279 21l-6 -90z" />
<glyph unicode="f" horiz-adv-x="729" d="M-10 319l2 50l557 20l-4 -90zM-4 459l4 49l555 20l-4 -90zM4 598l2 51l557 21l-4 -92zM53 -240l2 50l279 20l-6 -90zM59 -98l4 49l277 20l-4 -90zM68 41l2 49l278 21l-6 -91zM76 180l2 49l276 21l-4 -90zM104 739l2 49l279 21l-6 -90zM111 879l4 49l276 20l-4 -90z M119 1018l2 49l557 20l-4 -90zM127 1157l2 49l557 21l-6 -90zM227 1296l2 50l463 20l-4 -90z" />
<glyph unicode="g" horiz-adv-x="755" d="M0 459l2 49l651 20l-6 -90zM8 598l2 51l649 21l-4 -92zM14 739l2 49l279 21l-4 -90zM23 879l2 49l649 20l-4 -90zM29 1018l4 49l649 20l-4 -90zM57 -240l2 50l463 20l-4 -90zM63 -98l3 49l557 20l-5 -90zM72 41l2 49l557 21l-4 -91zM86 319l2 50l557 20l-4 -90zM129 1157 l4 49l463 21l-4 -90zM358 180l2 49l277 21l-4 -90zM387 739l2 49l279 21l-6 -90z" />
<glyph unicode="h" horiz-adv-x="759" d="M-41 -240l4 50l277 20l-4 -90zM-33 -98l2 49l279 20l-6 -90zM-25 41l2 49l277 21l-4 -91zM-18 180l2 49l278 21l-4 -90zM-10 319l2 50l276 20l-4 -90zM-4 459l4 49l276 20l-4 -90zM4 598l2 51l279 21l-6 -92zM10 739l4 49l277 21l-4 -90zM18 879l2 49l652 20l-6 -90z M27 1018l2 49l649 20l-4 -90zM33 1157l2 49l557 21l-4 -90zM41 1296l2 50l276 20l-4 -90zM332 -240l2 50l278 20l-4 -90zM340 -98l2 49l279 20l-7 -90zM346 41l4 49l277 21l-4 -91zM354 180l2 49l279 21l-6 -90zM360 319l5 50l276 20l-4 -90zM369 459l2 49l278 20l-4 -90z M377 598l2 51l276 21l-4 -92zM383 739l2 49l279 21l-5 -90z" />
<glyph unicode="i" horiz-adv-x="399" d="M-41 -240l4 50l277 20l-4 -90zM-33 -98l2 49l279 20l-6 -90zM-25 41l2 49l277 21l-4 -91zM-18 180l2 49l278 21l-4 -90zM-10 319l2 50l276 20l-4 -90zM-4 459l4 49l276 20l-4 -90zM4 598l2 51l279 21l-6 -92zM10 739l4 49l277 21l-4 -90zM27 1018l2 49l276 20l-4 -90z M33 1157l2 49l278 21l-4 -90zM41 1296l2 50l276 20l-4 -90z" />
<glyph unicode="j" horiz-adv-x="489" d="M-41 -240l4 50l277 20l-4 -90zM-33 -98l2 49l371 20l-4 -90zM-25 41l2 49l371 21l-6 -91zM76 180l2 49l276 21l-4 -90zM82 319l2 50l278 20l-4 -90zM90 459l2 49l277 20l-4 -90zM96 598l4 51l277 21l-4 -92zM104 739l2 49l279 21l-6 -90zM119 1018l2 49l278 20l-6 -90z M127 1157l2 49l277 21l-5 -90zM133 1296l2 50l279 20l-4 -90z" />
<glyph unicode="k" horiz-adv-x="759" d="M-41 -240l4 50l277 20l-4 -90zM-33 -98l2 49l279 20l-6 -90zM-25 41l2 49l277 21l-4 -91zM-18 180l2 49l278 21l-4 -90zM-10 319l2 50l649 20l-4 -90zM-4 459l4 49l555 20l-4 -90zM4 598l2 51l649 21l-4 -92zM10 739l4 49l277 21l-4 -90zM18 879l2 49l279 20l-6 -90z M27 1018l2 49l276 20l-4 -90zM33 1157l2 49l278 21l-4 -90zM41 1296l2 50l276 20l-4 -90zM332 -240l2 50l278 20l-4 -90zM340 -98l2 49l279 20l-7 -90zM346 41l4 49l277 21l-4 -91zM354 180l2 49l279 21l-6 -90zM383 739l2 49l279 21l-5 -90zM391 879l2 49l279 20l-6 -90z M397 1018l4 49l277 20l-4 -90zM406 1157l2 49q-19 0 -19 1q0 2 108 10q153 10 189 10l-6 -90z" />
<glyph unicode="l" horiz-adv-x="485" d="M-33 -98l2 49l371 20l-4 -90zM-25 41l2 49l371 21l-6 -91zM-18 180l2 49l278 21l-4 -90zM-10 319l2 50l276 20l-4 -90zM-4 459l4 49l276 20l-4 -90zM4 598l2 51l279 21l-6 -92zM10 739l4 49l277 21l-4 -90zM18 879l2 49l279 20l-6 -90zM27 1018l2 49l276 20l-4 -90z M33 1157l2 49l278 21l-4 -90zM41 1296l2 50l276 20l-4 -90zM53 -240l2 50l279 20l-6 -90z" />
<glyph unicode="m" horiz-adv-x="1124" d="M-37 -240l2 50l279 20l-4 -90zM-29 -98l2 49l279 20l-6 -90zM-23 41l5 49l276 21l-4 -91zM-14 180l2 49l278 21l-6 -90zM-8 319l4 50l276 20l-4 -90zM0 459l2 49l279 20l-5 -90zM8 598l2 51l277 21l-4 -92zM14 739l2 49l279 21l-4 -90zM23 879l2 49l1022 20l-5 -90z M29 1018l4 49l1022 20l-6 -90zM37 1157l2 49l465 21l-6 -90zM336 -240l2 50l278 20l-6 -90zM344 -98l2 49l277 20l-5 -90zM350 41l2 49l279 21l-4 -91zM358 180l2 49l277 21l-4 -90zM365 319l4 50l276 20l-4 -90zM373 459l2 49l278 20l-6 -90zM379 598l4 51l276 21l-4 -92z M387 739l2 49l279 21l-6 -90zM596 1157l2 49l371 21l-4 -90zM709 -240l2 50l278 20l-6 -90zM715 -98l4 49l276 20l-4 -90zM723 41l2 49l279 21l-7 -91zM729 180l4 49l277 21l-4 -90zM737 319l2 50l279 20l-4 -90zM745 459l3 49l276 20l-4 -90zM752 598l2 51l278 21l-4 -92z M760 739l2 49l278 21l-6 -90z" />
<glyph unicode="n" horiz-adv-x="759" d="M-37 -240l2 50l279 20l-4 -90zM-29 -98l2 49l279 20l-6 -90zM-23 41l5 49l276 21l-4 -91zM-14 180l2 49l278 21l-6 -90zM-8 319l4 50l276 20l-4 -90zM0 459l2 49l279 20l-5 -90zM8 598l2 51l277 21l-4 -92zM14 739l2 49l279 21l-4 -90zM23 879l2 49l649 20l-4 -90z M29 1018l4 49l649 20l-4 -90zM37 1157l2 49l557 21l-4 -90zM336 -240l2 50l278 20l-6 -90zM344 -98l2 49l277 20l-5 -90zM350 41l2 49l279 21l-4 -91zM358 180l2 49l277 21l-4 -90zM365 319l4 50l276 20l-4 -90zM373 459l2 49l278 20l-6 -90zM379 598l4 51l276 21l-4 -92z M387 739l2 49l279 21l-6 -90z" />
<glyph unicode="o" horiz-adv-x="755" d="M-29 -98l2 49l650 20l-5 -90zM-23 41l5 49l649 21l-4 -91zM-14 180l2 49l278 21l-6 -90zM-8 319l4 50l276 20l-4 -90zM0 459l2 49l279 20l-5 -90zM8 598l2 51l277 21l-4 -92zM14 739l2 49l279 21l-4 -90zM23 879l2 49l649 20l-4 -90zM29 1018l4 49l649 20l-4 -90z M57 -240l2 50l463 20l-4 -90zM129 1157l4 49l463 21l-4 -90zM358 180l2 49l277 21l-4 -90zM365 319l4 50l276 20l-4 -90zM373 459l2 49l278 20l-6 -90zM379 598l4 51l276 21l-4 -92zM387 739l2 49l279 21l-6 -90z" />
<glyph unicode="p" horiz-adv-x="745" d="M-37 -240l2 50l279 20l-4 -90zM-29 -98l2 49l557 20l-4 -90zM-23 41l5 49l649 21l-4 -91zM-14 180l2 49l649 21l-4 -90zM-8 319l4 50l276 20l-4 -90zM0 459l2 49l279 20l-5 -90zM8 598l2 51l277 21l-4 -92zM14 739l2 49l279 21l-4 -90zM23 879l2 49l649 20l-4 -90z M29 1018l4 49l649 20l-4 -90zM37 1157l2 49l557 21l-4 -90zM365 319l4 50l276 20l-4 -90zM373 459l2 49l278 20l-6 -90zM379 598l4 51l276 21l-4 -92zM387 739l2 49l279 21l-6 -90z" />
<glyph unicode="q" horiz-adv-x="759" d="M-23 41l5 49l649 21l-4 -91zM-14 180l2 49l649 21l-4 -90zM-8 319l4 50l276 20l-4 -90zM0 459l2 49l279 20l-5 -90zM8 598l2 51l277 21l-4 -92zM14 739l2 49l279 21l-4 -90zM23 879l2 49l649 20l-4 -90zM29 1018l4 49l649 20l-4 -90zM63 -98l3 49l557 20l-5 -90z M129 1157l4 49l463 21l-4 -90zM336 -240l2 50l278 20l-6 -90zM365 319l4 50l276 20l-4 -90zM373 459l2 49l278 20l-6 -90zM379 598l4 51l276 21l-4 -92zM387 739l2 49l279 21l-6 -90z" />
<glyph unicode="r" horiz-adv-x="550" d="M-37 -240l2 50l279 20l-4 -90zM-29 -98l2 49l279 20l-6 -90zM-23 41l5 49l276 21l-4 -91zM-14 180l2 49l278 21l-6 -90zM-8 319l4 50l276 20l-4 -90zM0 459l2 49l279 20l-5 -90zM8 598l2 51l277 21l-4 -92zM14 739l2 49l279 21l-4 -90zM23 879l2 49l462 20l-4 -90z M29 1018l4 49l463 20l-4 -90zM129 1157l4 49l371 21l-6 -90z" />
<glyph unicode="s" d="M-37 -240l2 52l557 20l-4 -92zM-29 -98l2 49l650 20l-5 -90zM-23 41l5 49l649 21l-4 -91zM0 459l2 49l651 20l-6 -90zM8 598l2 51l557 21l-6 -92zM14 739l2 49l279 21l-4 -90zM23 879l2 49l649 20l-4 -90zM29 1018l4 49l649 20l-4 -90zM86 319l2 50l557 20l-4 -90z M129 1157l4 49l555 21l-4 -90zM358 180l2 49l277 21l-4 -90z" />
<glyph unicode="t" horiz-adv-x="751" d="M18 879l2 49l652 20l-6 -90zM27 1018l2 49l649 20l-4 -90zM33 1157l2 49l651 21l-6 -90zM59 -98l4 49l558 20l-7 -90zM68 41l2 49l557 21l-4 -91zM76 180l2 49l276 21l-4 -90zM82 319l2 50l278 20l-4 -90zM90 459l2 49l277 20l-4 -90zM96 598l4 51l277 21l-4 -92z M104 739l2 49l279 21l-6 -90zM133 1296l2 50h-13q0 2 116 10q154 10 176 10l-4 -90zM145 -240l5 50l462 20l-4 -90z" />
<glyph unicode="u" horiz-adv-x="755" d="M-29 -98l2 49l650 20l-5 -90zM-23 41l5 49l649 21l-4 -91zM-14 180l2 49l278 21l-6 -90zM-8 319l4 50l276 20l-4 -90zM0 459l2 49l279 20l-5 -90zM8 598l2 51l277 21l-4 -92zM14 739l2 49l279 21l-4 -90zM23 879l2 49l278 20l-6 -90zM29 1018l4 49l276 20l-4 -90z M37 1157l2 49l278 21l-6 -90zM57 -240l2 50l463 20l-4 -90zM358 180l2 49l277 21l-4 -90zM365 319l4 50l276 20l-4 -90zM373 459l2 49l278 20l-6 -90zM379 598l4 51l276 21l-4 -92zM387 739l2 49l279 21l-6 -90zM395 879l2 49l277 20l-4 -90zM401 1018l2 49l279 20l-4 -90z M410 1157l2 49l276 21l-4 -90z" />
<glyph unicode="v" horiz-adv-x="751" d="M-23 41l5 49l649 21l-4 -91zM-14 180l2 49l278 21l-6 -90zM-8 319l4 50l276 20l-4 -90zM0 459l2 49l279 20l-5 -90zM8 598l2 51l277 21l-4 -92zM14 739l2 49l279 21l-4 -90zM23 879l2 49l278 20l-6 -90zM29 1018l4 49l276 20l-4 -90zM37 1157l2 49l278 21l-6 -90zM63 -98 l3 49l464 20l-4 -90zM150 -240l2 50l278 20l-4 -90zM358 180l2 49l277 21l-4 -90zM365 319l4 50l276 20l-4 -90zM373 459l2 49l278 20l-6 -90zM379 598l4 51l276 21l-4 -92zM387 739l2 49l279 21l-6 -90zM395 879l2 49l277 20l-4 -90zM401 1018l2 49l279 20l-4 -90z M410 1157l2 49l276 21l-4 -90z" />
<glyph unicode="w" horiz-adv-x="1122" d="M-29 -98l2 49l1022 20l-4 -90zM-23 41l5 49l1022 21l-7 -91zM-14 180l2 49l278 21l-6 -90zM-8 319l4 50l276 20l-4 -90zM0 459l2 49l279 20l-5 -90zM8 598l2 51l277 21l-4 -92zM14 739l2 49l279 21l-4 -90zM23 879l2 49l278 20l-6 -90zM29 1018l4 49l276 20l-4 -90z M37 1157l2 49l278 21l-6 -90zM57 -240l2 50l371 20l-4 -90zM358 180l2 49l277 21l-4 -90zM365 319l4 50l276 20l-4 -90zM373 459l2 49l278 20l-6 -90zM379 598l4 51l276 21l-4 -92zM387 739l2 49l279 21l-6 -90zM395 879l2 49l277 20l-4 -90zM401 1018l2 49l279 20l-4 -90z M410 1157l2 49l276 21l-4 -90zM522 -240l2 50l371 20l-4 -90zM729 180l4 49l277 21l-4 -90zM737 319l2 50l279 20l-4 -90zM745 459l3 49l276 20l-4 -90zM752 598l2 51l278 21l-4 -92zM760 739l2 49l278 21l-6 -90zM766 879l4 49l277 20l-5 -90zM774 1018l2 49l279 20l-6 -90 zM782 1157l2 49l277 21l-4 -90z" />
<glyph unicode="x" horiz-adv-x="759" d="M-37 -240l2 50l279 20l-4 -90zM-29 -98l2 49l279 20l-6 -90zM-23 41l5 49l276 21l-4 -91zM-14 180l2 49l278 21l-6 -90zM-8 319l4 50l649 20l-4 -90zM8 598l2 51l649 21l-4 -92zM14 739l2 49l279 21l-4 -90zM23 879l2 49l278 20l-6 -90zM29 1018l4 49l276 20l-4 -90z M37 1157l2 49l278 21l-6 -90zM92 459l4 49l463 20l-4 -90zM336 -240l2 50l278 20l-6 -90zM344 -98l2 49l277 20l-5 -90zM350 41l2 49l279 21l-4 -91zM358 180l2 49l277 21l-4 -90zM387 739l2 49l279 21l-6 -90zM395 879l2 49l277 20l-4 -90zM401 1018l2 49l279 20l-4 -90z M410 1157l2 49l276 21l-4 -90z" />
<glyph unicode="y" horiz-adv-x="755" d="M0 459l2 49l651 20l-6 -90zM8 598l2 51l649 21l-4 -92zM14 739l2 49l279 21l-4 -90zM23 879l2 49l278 20l-6 -90zM29 1018l4 49l276 20l-4 -90zM37 1157l2 49l278 21l-6 -90zM57 -240l2 50l463 20l-4 -90zM63 -98l3 49l557 20l-5 -90zM72 41l2 49l557 21l-4 -91zM86 319 l2 50l557 20l-4 -90zM358 180l2 49l277 21l-4 -90zM387 739l2 49l279 21l-6 -90zM395 879l2 49l277 20l-4 -90zM401 1018l2 49l279 20l-4 -90zM410 1157l2 49l276 21l-4 -90z" />
<glyph unicode="z" d="M-37 -240l2 52l651 20l-6 -92zM-29 -98l2 49l650 20l-5 -90zM-23 41l5 49l649 21l-4 -91zM-14 180l2 49l278 21l-6 -90zM23 879l2 49l649 20l-4 -90zM29 1018l4 49l649 20l-4 -90zM37 1157l2 49l649 21l-4 -90zM86 319l2 50l279 20l-7 -90zM186 459l2 49l279 20l-6 -90z M287 598l2 51l278 21l-6 -92zM387 739l2 49l279 21l-6 -90z" />
<glyph unicode="{" horiz-adv-x="567" d="M-8 459l4 49l276 20l-4 -90zM0 598l2 51l279 21l-5 -92zM8 739l2 49l277 21l-4 -90zM49 -240l2 50l371 20l-4 -90zM57 -98l2 49l371 20l-4 -90zM63 41l3 49l278 21l-4 -91zM72 180l2 49l278 21l-6 -90zM78 319l4 50l276 20l-4 -90zM109 879l2 49l276 20l-4 -90zM115 1018 l2 49l278 20l-4 -90zM123 1157l2 49l278 21l-6 -90zM129 1296l4 50l371 20l-6 -90zM135 -379l2 49l279 21l-6 -90zM137 1436l2 51l371 20l-4 -92zM238 1577l2 49l278 21l-6 -91z" />
<glyph unicode="|" horiz-adv-x="393" d="M-43 -240l2 50l277 20l-5 -90zM-37 -98l2 49l279 20l-4 -90zM-29 41l2 49l279 21l-6 -91zM-23 180l5 49l276 21l-4 -90zM-14 319l2 50l278 20l-6 -90zM-8 459l4 49l276 20l-4 -90zM0 598l2 51l279 21l-5 -92zM8 739l2 49l277 21l-4 -90zM14 879l2 49l279 20l-4 -90z M23 1018l2 49l278 20l-6 -90zM29 1157l4 49l276 21l-4 -90zM37 1296l2 50l278 20l-6 -90zM43 1436l4 51l277 20l-5 -92z" />
<glyph unicode="}" horiz-adv-x="546" d="M-51 -379l276 -20l4 90l-278 -21zM-43 -240l369 -20l4 90l-371 -20zM-37 -98l369 -21l4 90l-371 -20zM37 1296l369 -20l4 90l-371 -20zM43 1436l369 -21l6 92l-371 -20zM51 1577l277 -21l4 91l-279 -21zM63 41l277 -21l4 91l-278 -21zM72 180l274 -20l6 90l-278 -21z M78 319l276 -20l4 90l-276 -20zM109 879l274 -21l4 90l-276 -20zM115 1018l276 -21l4 90l-278 -20zM123 1157l274 -20l6 90l-278 -21zM178 459l277 -21l4 90l-277 -20zM186 598l275 -20l6 92l-279 -21zM195 739l274 -20l4 90l-276 -21z" />
<glyph unicode="~" horiz-adv-x="749" d="M0 1157l2 49l651 21l-6 -90zM8 1296l2 50l557 20l-6 -90zM14 1415l2 72l279 20l-4 -92h-277zM86 1018l2 49l557 20l-4 -90zM358 879l2 49l277 20l-4 -90z" />
<glyph unicode="&#xad;" horiz-adv-x="757" d="M-8 459l4 49l649 20l-4 -90zM0 598l2 51l651 21l-6 -92zM8 739l2 49l649 21l-4 -90z" />
<glyph unicode="&#x2000;" horiz-adv-x="823" />
<glyph unicode="&#x2001;" horiz-adv-x="1646" />
<glyph unicode="&#x2002;" horiz-adv-x="823" />
<glyph unicode="&#x2003;" horiz-adv-x="1646" />
<glyph unicode="&#x2004;" horiz-adv-x="548" />
<glyph unicode="&#x2005;" horiz-adv-x="411" />
<glyph unicode="&#x2006;" horiz-adv-x="274" />
<glyph unicode="&#x2007;" horiz-adv-x="274" />
<glyph unicode="&#x2008;" horiz-adv-x="204" />
<glyph unicode="&#x2009;" horiz-adv-x="327" />
<glyph unicode="&#x200a;" horiz-adv-x="90" />
<glyph unicode="&#x2010;" horiz-adv-x="757" d="M-8 459l4 49l649 20l-4 -90zM0 598l2 51l651 21l-6 -92zM8 739l2 49l649 21l-4 -90z" />
<glyph unicode="&#x2011;" horiz-adv-x="757" d="M-8 459l4 49l649 20l-4 -90zM0 598l2 51l651 21l-6 -92zM8 739l2 49l649 21l-4 -90z" />
<glyph unicode="&#x2012;" horiz-adv-x="757" d="M-8 459l4 49l649 20l-4 -90zM0 598l2 51l651 21l-6 -92zM8 739l2 49l649 21l-4 -90z" />
<glyph unicode="&#x2013;" horiz-adv-x="1024" d="M205 512v205h614v-205h-614z" />
<glyph unicode="&#x2014;" horiz-adv-x="2048" d="M205 512v205h1638v-205h-1638z" />
<glyph unicode="&#x2018;" horiz-adv-x="389" d="M-8 1296l4 50l276 20l-4 -90zM0 1436l2 51l279 20l-5 -92zM8 1577l2 49l277 21l-4 -91z" />
<glyph unicode="&#x2019;" horiz-adv-x="389" d="M-8 1296l4 50l276 20l-4 -90zM0 1436l2 51l279 20l-5 -92zM8 1577l2 49l277 21l-4 -91z" />
<glyph unicode="&#x201c;" horiz-adv-x="759" d="M-8 1296l4 50l276 20l-4 -90zM0 1436l2 51l279 20l-5 -92zM8 1577l2 49l277 21l-4 -91zM365 1296l4 50l276 20l-4 -90zM373 1436l2 51l278 20l-6 -92zM379 1577l4 49l276 21l-4 -91z" />
<glyph unicode="&#x201d;" horiz-adv-x="759" d="M-8 1296l4 50l276 20l-4 -90zM0 1436l2 51l279 20l-5 -92zM8 1577l2 49l277 21l-4 -91zM365 1296l4 50l276 20l-4 -90zM373 1436l2 51l278 20l-6 -92zM379 1577l4 49l276 21l-4 -91z" />
<glyph unicode="&#x2026;" horiz-adv-x="1204" d="M795 -240l4 50l276 20l-4 -90zM803 -98l2 49l279 20l-5 -90zM811 41l2 49l277 21l-4 -91zM393 -240l4 50l276 20l-4 -90zM401 -98l2 49l279 20l-5 -90zM409 41l2 49l277 21l-4 -91zM-8 -240l4 50l276 20l-4 -90zM0 -98l2 49l279 20l-5 -90zM8 41l2 49l277 21l-4 -91z" />
<glyph unicode="&#x202f;" horiz-adv-x="327" />
<glyph unicode="&#x205f;" horiz-adv-x="411" />
<glyph unicode="&#x2122;" horiz-adv-x="1873" d="M709 -240l2 50l277 20l-5 -90zM715 -98l2 49l279 20l-4 -90zM723 41l2 49l279 21l-6 -91zM729 180l5 49l276 21l-4 -90zM738 319l2 50l278 20l-6 -90zM744 459l4 49l276 20l-4 -90zM752 598l2 51l279 21l-5 -92zM760 739l2 49l277 21l-4 -90zM766 879l2 49l279 20l-4 -90 zM775 1018l2 49l278 20l-6 -90zM781 1157l4 49l1022 21l-6 -90zM789 1296l2 50l1022 20l-4 -90zM795 1436l4 51l463 20l-4 -92zM1080 -240l4 50l276 20l-4 -90zM1088 -98l2 49l278 20l-6 -90zM1096 41l2 49l277 21l-5 -91zM1102 180l2 49l279 21l-4 -90zM1110 319l2 50 l277 20l-4 -90zM1117 459l4 49l276 20l-4 -90zM1125 598l2 51l278 21l-6 -92zM1131 739l4 49l276 21l-4 -90zM1139 879l2 49l279 20l-6 -90zM1147 1018l2 49l277 20l-4 -90zM1354 1436l2 51l371 20l-4 -92zM1452 -240l2 50l279 20l-4 -90zM1461 -98l2 49l278 20l-6 -90z M1467 41l4 49l276 21l-4 -91zM1475 180l2 49l279 21l-7 -90zM1481 319l4 50l277 20l-4 -90zM1489 459l2 49l279 20l-4 -90zM1497 598l3 51l276 21l-4 -92zM1504 739l2 49l278 21l-4 -90zM1512 879l2 49l278 20l-6 -90zM1518 1018l4 49l277 20l-5 -90zM29 1157l4 49l649 21 l-4 -90zM37 1296l2 50l649 20l-4 -90zM43 1436l4 51l649 20l-4 -92zM57 -98l2 49l557 20l-6 -90zM63 41l3 49l557 21l-5 -91zM72 180l2 49l278 21l-6 -90zM78 319l4 50l276 20l-4 -90zM86 459l2 49l279 20l-7 -90zM92 598l4 51l277 21l-4 -92zM100 739l2 49l279 21l-4 -90z M109 879l2 49l276 20l-4 -90zM115 1018l2 49l278 20l-4 -90zM143 -240l2 50l463 20l-4 -90z" />
<glyph unicode="&#xe000;" horiz-adv-x="1225" d="M0 1225h1225v-1225h-1225v1225z" />
<glyph unicode="&#xfb01;" horiz-adv-x="1128" d="M688 -240l4 50l277 20l-4 -90zM696 -98l2 49l279 20l-6 -90zM704 41l2 49l277 21l-4 -91zM711 180l2 49l278 21l-4 -90zM719 319l2 50l276 20l-4 -90zM725 459l4 49l276 20l-4 -90zM733 598l2 51l279 21l-6 -92zM739 739l4 49l277 21l-4 -90zM756 1018l2 49l276 20 l-4 -90zM762 1157l2 49l278 21l-4 -90zM770 1296l2 50l276 20l-4 -90zM-10 319l2 50l557 20l-4 -90zM-4 459l4 49l555 20l-4 -90zM4 598l2 51l557 21l-4 -92zM53 -240l2 50l279 20l-6 -90zM59 -98l4 49l277 20l-4 -90zM68 41l2 49l278 21l-6 -91zM76 180l2 49l276 21l-4 -90 zM104 739l2 49l279 21l-6 -90zM111 879l4 49l276 20l-4 -90zM119 1018l2 49l557 20l-4 -90zM127 1157l2 49l557 21l-6 -90zM227 1296l2 50l463 20l-4 -90z" />
<glyph unicode="&#xfb02;" horiz-adv-x="1214" d="M696 -98l2 49l371 20l-4 -90zM704 41l2 49l371 21l-6 -91zM711 180l2 49l278 21l-4 -90zM719 319l2 50l276 20l-4 -90zM725 459l4 49l276 20l-4 -90zM733 598l2 51l279 21l-6 -92zM739 739l4 49l277 21l-4 -90zM747 879l2 49l279 20l-6 -90zM756 1018l2 49l276 20l-4 -90 zM762 1157l2 49l278 21l-4 -90zM770 1296l2 50l276 20l-4 -90zM782 -240l2 50l279 20l-6 -90zM-10 319l2 50l557 20l-4 -90zM-4 459l4 49l555 20l-4 -90zM4 598l2 51l557 21l-4 -92zM53 -240l2 50l279 20l-6 -90zM59 -98l4 49l277 20l-4 -90zM68 41l2 49l278 21l-6 -91z M76 180l2 49l276 21l-4 -90zM104 739l2 49l279 21l-6 -90zM111 879l4 49l276 20l-4 -90zM119 1018l2 49l557 20l-4 -90zM127 1157l2 49l557 21l-6 -90zM227 1296l2 50l463 20l-4 -90z" />
<glyph unicode="&#xfb03;" horiz-adv-x="1857" d="M1417 -240l4 50l277 20l-4 -90zM1425 -98l2 49l279 20l-6 -90zM1433 41l2 49l277 21l-4 -91zM1440 180l2 49l278 21l-4 -90zM1448 319l2 50l276 20l-4 -90zM1454 459l4 49l276 20l-4 -90zM1462 598l2 51l279 21l-6 -92zM1468 739l4 49l277 21l-4 -90zM1485 1018l2 49 l276 20l-4 -90zM1491 1157l2 49l278 21l-4 -90zM1499 1296l2 50l276 20l-4 -90zM719 319l2 50l557 20l-4 -90zM725 459l4 49l555 20l-4 -90zM733 598l2 51l557 21l-4 -92zM782 -240l2 50l279 20l-6 -90zM788 -98l4 49l277 20l-4 -90zM797 41l2 49l278 21l-6 -91zM805 180 l2 49l276 21l-4 -90zM833 739l2 49l279 21l-6 -90zM840 879l4 49l276 20l-4 -90zM848 1018l2 49l557 20l-4 -90zM856 1157l2 49l557 21l-6 -90zM956 1296l2 50l463 20l-4 -90zM-10 319l2 50l557 20l-4 -90zM-4 459l4 49l555 20l-4 -90zM4 598l2 51l557 21l-4 -92zM53 -240 l2 50l279 20l-6 -90zM59 -98l4 49l277 20l-4 -90zM68 41l2 49l278 21l-6 -91zM76 180l2 49l276 21l-4 -90zM104 739l2 49l279 21l-6 -90zM111 879l4 49l276 20l-4 -90zM119 1018l2 49l557 20l-4 -90zM127 1157l2 49l557 21l-6 -90zM227 1296l2 50l463 20l-4 -90z" />
<glyph unicode="&#xfb04;" horiz-adv-x="1943" d="M1425 -98l2 49l371 20l-4 -90zM1433 41l2 49l371 21l-6 -91zM1440 180l2 49l278 21l-4 -90zM1448 319l2 50l276 20l-4 -90zM1454 459l4 49l276 20l-4 -90zM1462 598l2 51l279 21l-6 -92zM1468 739l4 49l277 21l-4 -90zM1476 879l2 49l279 20l-6 -90zM1485 1018l2 49 l276 20l-4 -90zM1491 1157l2 49l278 21l-4 -90zM1499 1296l2 50l276 20l-4 -90zM1511 -240l2 50l279 20l-6 -90zM719 319l2 50l557 20l-4 -90zM725 459l4 49l555 20l-4 -90zM733 598l2 51l557 21l-4 -92zM782 -240l2 50l279 20l-6 -90zM788 -98l4 49l277 20l-4 -90zM797 41 l2 49l278 21l-6 -91zM805 180l2 49l276 21l-4 -90zM833 739l2 49l279 21l-6 -90zM840 879l4 49l276 20l-4 -90zM848 1018l2 49l557 20l-4 -90zM856 1157l2 49l557 21l-6 -90zM956 1296l2 50l463 20l-4 -90zM-10 319l2 50l557 20l-4 -90zM-4 459l4 49l555 20l-4 -90zM4 598 l2 51l557 21l-4 -92zM53 -240l2 50l279 20l-6 -90zM59 -98l4 49l277 20l-4 -90zM68 41l2 49l278 21l-6 -91zM76 180l2 49l276 21l-4 -90zM104 739l2 49l279 21l-6 -90zM111 879l4 49l276 20l-4 -90zM119 1018l2 49l557 20l-4 -90zM127 1157l2 49l557 21l-6 -90zM227 1296 l2 50l463 20l-4 -90z" />
</font>
</defs>
</svg>
